<svg width="50" height="50" viewBox="0 0 50 50" fill="none" xmlns="http://www.w3.org/2000/svg">
<rect width="50" height="50" rx="12" fill="#F178B6"/>
<path d="M18.4714 20.6799H14.8104C14.4443 20.6799 14.2002 20.8959 14.2002 21.2199V35.2599C14.2002 35.5839 14.4443 35.7999 14.8104 35.7999H18.4714C18.8375 35.7999 19.0815 35.5839 19.0815 35.2599V21.2199C19.0815 20.8959 18.8375 20.6799 18.4714 20.6799Z" fill="white"/>
<path d="M32.0171 17.4401C31.8951 17.1161 31.651 17.008 31.2849 17.008L27.7459 17.656C27.3798 17.764 27.2578 17.9801 27.2578 18.3041L31.0409 35.2601C31.1629 35.5841 31.407 35.6921 31.7731 35.6921L35.312 35.0441C35.6782 34.9361 35.8002 34.72 35.8002 34.396L32.0171 17.4401Z" fill="white"/>
<path d="M25.7934 14.2H22.1324C21.7663 14.2 21.5222 14.416 21.5222 14.74V35.2599C21.5222 35.5839 21.7663 35.7999 22.1324 35.7999H25.7934C26.1595 35.7999 26.4036 35.5839 26.4036 35.2599V14.74C26.4036 14.416 26.1595 14.2 25.7934 14.2Z" fill="white"/>
</svg>
