<svg width="60" height="60" viewBox="0 0 60 60" fill="none" xmlns="http://www.w3.org/2000/svg">
<circle cx="30" cy="30" r="30" fill="#9D96B3" fill-opacity="0.1"/>
<path d="M35.4771 30.4913C35.7819 30.4913 36.0291 30.2441 36.0291 29.9393C36.0291 29.6344 35.7819 29.3872 35.4771 29.3872C35.1722 29.3872 34.925 29.6344 34.925 29.9393C34.925 30.2441 35.1722 30.4913 35.4771 30.4913Z" fill="#C54EFD" stroke="#C54EFD" stroke-linecap="round" stroke-linejoin="round"/>
<path d="M29.9411 30.4913C30.246 30.4913 30.4932 30.2441 30.4932 29.9393C30.4932 29.6344 30.246 29.3872 29.9411 29.3872C29.6363 29.3872 29.3891 29.6344 29.3891 29.9393C29.3891 30.2441 29.6363 30.4913 29.9411 30.4913Z" fill="#C54EFD" stroke="#C54EFD" stroke-linecap="round" stroke-linejoin="round"/>
<path d="M24.4036 30.4913C24.7085 30.4913 24.9557 30.2441 24.9557 29.9393C24.9557 29.6344 24.7085 29.3872 24.4036 29.3872C24.0988 29.3872 23.8516 29.6344 23.8516 29.9393C23.8516 30.2441 24.0988 30.4913 24.4036 30.4913Z" fill="#C54EFD" stroke="#C54EFD" stroke-linecap="round" stroke-linejoin="round"/>
<path d="M29.942 41.0145C36.0571 41.0145 41.0144 36.0572 41.0144 29.9421C41.0144 23.8269 36.0571 18.8696 29.942 18.8696C23.8268 18.8696 18.8695 23.8269 18.8695 29.9421C18.8695 31.9588 19.4087 33.8497 20.3508 35.4783L19.4231 40.4609L24.4057 39.5333C26.0344 40.4753 27.9252 41.0145 29.942 41.0145Z" stroke="#C54EFD" stroke-width="2" stroke-linecap="round" stroke-linejoin="round"/>
</svg>
