<svg width="116" height="116" viewBox="0 0 116 116" fill="none" xmlns="http://www.w3.org/2000/svg">
<mask id="mask0_10348_871" style="mask-type:luminance" maskUnits="userSpaceOnUse" x="0" y="0" width="116" height="116">
<path d="M115.7 0H0.300049V115.4H115.7V0Z" fill="white"/>
</mask>
<g mask="url(#mask0_10348_871)">
<path d="M69.043 16.8382L74.8668 21.9539C75.3219 22.3537 75.8709 22.6318 76.4629 22.7624L84.0406 24.432C85.216 24.691 86.1831 25.521 86.6133 26.6411L89.3886 33.8617C89.6054 34.4256 89.9625 34.926 90.4261 35.3154L96.364 40.2996C97.2848 41.0727 97.7546 42.2548 97.6136 43.4447L96.704 51.1155C96.6329 51.7147 96.716 52.3224 96.9455 52.8815L99.8831 60.0385C100.338 61.1487 100.203 62.4116 99.5231 63.3986L95.1373 69.7632C94.7948 70.2605 94.5849 70.8362 94.5273 71.4368L93.7915 79.1267C93.6773 80.3199 92.9683 81.3743 91.9046 81.9324L85.0477 85.5322C84.5119 85.8134 84.057 86.2256 83.7257 86.7305L79.4853 93.1919C78.8277 94.1941 77.7069 94.7986 76.5035 94.8002L68.7458 94.8106C68.1399 94.8113 67.5444 94.9655 67.0151 95.2586L60.2414 99.0114C59.1909 99.5934 57.9155 99.6093 56.848 99.0538L49.967 95.4723C49.4295 95.1925 48.8296 95.0536 48.2239 95.0678L40.4687 95.252C39.2657 95.2806 38.1279 94.7045 37.4409 93.719L33.0129 87.3662C32.6671 86.8702 32.2002 86.4693 31.6565 86.2016L24.6966 82.7751C23.6169 82.2436 22.8771 81.2075 22.7283 80.0179L21.7674 72.3495C21.6923 71.7504 21.4658 71.1794 21.1089 70.6912L16.5385 64.439C15.8295 63.469 15.6574 62.2101 16.0803 61.0891L18.8071 53.8612C19.0201 53.2966 19.0854 52.6869 18.9968 52.0896L17.8632 44.4442C17.6872 43.2583 18.1221 42.0651 19.0201 41.2693L24.8097 36.1379C25.2619 35.737 25.6044 35.2283 25.8045 34.6588L28.3672 27.3714C28.7646 26.2408 29.7068 25.3868 30.8744 25.0985L38.4004 23.2392C38.9883 23.0942 39.5292 22.8024 39.9723 22.3914L45.6441 17.1316C46.5239 16.3156 47.7577 15.9962 48.9271 16.2814L56.4656 18.1205C57.0544 18.264 57.6701 18.2566 58.2547 18.0983L65.7362 16.0706C66.897 15.7561 68.1397 16.0446 69.043 16.8382Z" fill="#00C885"/>
<path d="M43.5983 59.7511C46.7023 62.8551 52.4729 68.6257 52.4729 68.6257C52.4729 68.6257 72.4927 48.6056 74.2081 46.8901" stroke="white" stroke-width="4.2" stroke-miterlimit="10"/>
<mask id="mask1_10348_871" style="mask-type:luminance" maskUnits="userSpaceOnUse" x="4" y="3" width="108" height="109">
<path d="M4.06726 3.76709H111.933V111.633H4.06726V3.76709Z" fill="white"/>
</mask>
<g mask="url(#mask1_10348_871)">
<path d="M56.4718 13.7151C56.4718 10.5836 56.4718 6.19385 56.4718 6.19385" stroke="#00C885" stroke-width="2.2433" stroke-miterlimit="10"/>
<path d="M56.5618 106.419C56.5618 106.419 56.5618 102.029 56.5618 98.8975" stroke="#00C885" stroke-width="2.2433" stroke-miterlimit="10"/>
<path d="M99.108 56.2617C102.24 56.2617 106.629 56.2617 106.629 56.2617" stroke="#00C885" stroke-width="2.2433" stroke-miterlimit="10"/>
<path d="M6.40417 56.3516C6.40417 56.3516 10.7939 56.3516 13.9255 56.3516" stroke="#00C885" stroke-width="2.2433" stroke-miterlimit="10"/>
<path d="M86.6652 86.3911C88.8795 88.6054 91.9837 91.7096 91.9837 91.7096" stroke="#00C885" stroke-width="2.2433" stroke-miterlimit="10"/>
<path d="M21.0502 20.9033C21.0502 20.9033 24.1542 24.0075 26.3683 26.2218" stroke="#00C885" stroke-width="2.2433" stroke-miterlimit="10"/>
<path d="M86.6014 26.158C88.8157 23.9439 91.9199 20.8398 91.9199 20.8398" stroke="#00C885" stroke-width="2.2433" stroke-miterlimit="10"/>
<path d="M21.1136 91.7731C21.1136 91.7731 24.2177 88.6689 26.4318 86.4546" stroke="#00C885" stroke-width="2.2433" stroke-miterlimit="10"/>
</g>
</g>
</svg>
