<svg width="50" height="50" viewBox="0 0 50 50" fill="none" xmlns="http://www.w3.org/2000/svg">
<rect width="50" height="50" rx="12" fill="#F178B6"/>
<path d="M25 15.4C19.6981 15.4 15.4 19.6981 15.4 25C15.4 30.3019 19.6981 34.6 25 34.6V37C18.3726 37 13 31.6274 13 25C13 18.3726 18.3726 13 25 13C31.6274 13 37 18.3726 37 25H34.6C34.6 19.6981 30.3019 15.4 25 15.4Z" fill="white"/>
<path d="M27.4 29.0971L25 26.6971C24.5314 26.2284 24.5314 25.4686 25 25C25.4686 24.5314 26.2284 24.5314 26.6971 25L29.0971 27.4H34.6V29.8H31.4971L32.6971 31H37V33.4H35.0971L36.0485 34.3515L34.3515 36.0485L33.4 35.0971V37H31V32.6971L29.8 31.4971V34.6H27.4V29.0971Z" fill="white"/>
<path d="M21.4 25C21.4 23.0118 23.0118 21.4 25 21.4C26.9882 21.4 28.6 23.0118 28.6 25H31C31 21.6863 28.3137 19 25 19C21.6863 19 19 21.6863 19 25C19 28.3137 21.6863 31 25 31V28.6C23.0118 28.6 21.4 26.9882 21.4 25Z" fill="white"/>
</svg>
